<svg width="120" height="40" viewBox="0 0 120 40" fill="none" xmlns="http://www.w3.org/2000/svg">
  <path d="M20 10C14.477 10 10 14.477 10 20C10 25.523 14.477 30 20 30C25.523 30 30 25.523 30 20C30 14.477 25.523 10 20 10ZM20 27.5C15.858 27.5 12.5 24.142 12.5 20C12.5 15.858 15.858 12.5 20 12.5C24.142 12.5 27.5 15.858 27.5 20C27.5 24.142 24.142 27.5 20 27.5Z" fill="#6B7280"/>
  <path d="M35 10H45V30H35V10Z" fill="#6B7280"/>
  <path d="M50 10H60V20H50V10Z" fill="#6B7280"/>
  <path d="M50 22.5H60V30H50V22.5Z" fill="#6B7280"/>
  <path d="M65 10H75V30H65V10Z" fill="#6B7280"/>
  <path d="M80 10H110V15H80V10Z" fill="#6B7280"/>
  <path d="M80 17.5H105V22.5H80V17.5Z" fill="#6B7280"/>
  <path d="M80 25H100V30H80V25Z" fill="#6B7280"/>
</svg>
