<svg width="120" height="40" viewBox="0 0 120 40" fill="none" xmlns="http://www.w3.org/2000/svg">
  <path d="M15 15H25V25H15V15Z" fill="#6B7280"/>
  <path d="M30 15H40V25H30V15Z" fill="#6B7280"/>
  <path d="M45 15H55V25H45V15Z" fill="#6B7280"/>
  <path d="M60 10H70V30H60V10Z" fill="#6B7280"/>
  <path d="M75 20C75 14.477 79.477 10 85 10H95C100.523 10 105 14.477 105 20C105 25.523 100.523 30 95 30H85C79.477 30 75 25.523 75 20ZM85 12.5C80.858 12.5 77.5 15.858 77.5 20C77.5 24.142 80.858 27.5 85 27.5H95C99.142 27.5 102.5 24.142 102.5 20C102.5 15.858 99.142 12.5 95 12.5H85Z" fill="#6B7280"/>
</svg>
