<svg width="120" height="40" viewBox="0 0 120 40" fill="none" xmlns="http://www.w3.org/2000/svg">
  <path d="M10 10H30V15H10V10Z" fill="#6B7280"/>
  <path d="M10 17.5H25V22.5H10V17.5Z" fill="#6B7280"/>
  <path d="M10 25H20V30H10V25Z" fill="#6B7280"/>
  <path d="M35 10H45V30H35V10Z" fill="#6B7280"/>
  <path d="M50 10H70C75.523 10 80 14.477 80 20C80 25.523 75.523 30 70 30H50V10ZM52.5 12.5V27.5H70C74.142 27.5 77.5 24.142 77.5 20C77.5 15.858 74.142 12.5 70 12.5H52.5Z" fill="#6B7280"/>
  <path d="M85 10H95C100.523 10 105 14.477 105 20C105 25.523 100.523 30 95 30H85C89.142 30 92.5 26.642 92.5 22.5V17.5C92.5 13.358 89.142 10 85 10ZM95 12.5H90C94.142 12.5 97.5 15.858 97.5 20C97.5 24.142 94.142 27.5 90 27.5H95C99.142 27.5 102.5 24.142 102.5 20C102.5 15.858 99.142 12.5 95 12.5Z" fill="#6B7280"/>
  <path d="M110 15H120V17.5H110V15Z" fill="#6B7280"/>
  <path d="M110 20H120V22.5H110V20Z" fill="#6B7280"/>
  <path d="M110 25H120V27.5H110V25Z" fill="#6B7280"/>
</svg>
